<?xml version="1.0" standalone="no"?>
<!DOCTYPE svg PUBLIC "-//W3C//DTD SVG 20010904//EN"
 "http://www.w3.org/TR/2001/REC-SVG-20010904/DTD/svg10.dtd">
<svg version="1.0" xmlns="http://www.w3.org/2000/svg"
 width="1600.000000pt" height="1600.000000pt" viewBox="0 0 1600.000000 1600.000000"
 preserveAspectRatio="xMidYMid meet">
<metadata>
Created by potrace 1.11, written by Peter Selinger 2001-2013
</metadata>
<g transform="translate(0.000000,1600.000000) scale(0.100000,-0.100000)"
fill="#000000" stroke="none">
<path d="M1440 14093 c-229 -36 -402 -124 -549 -278 -118 -124 -192 -258 -234
-422 l-22 -88 0 -5515 0 -5515 26 -55 c32 -66 86 -123 154 -158 l50 -27 7070
0 7070 0 50 24 c63 32 124 93 156 156 l24 50 3 5490 c2 3826 -1 5511 -8 5559
-26 166 -111 349 -225 479 -106 122 -282 231 -450 279 l-80 23 -6505 1 c-3578
1 -6516 0 -6530 -3z m13018 -667 c29 -17 66 -48 83 -70 62 -85 59 1 59 -1603
l0 -1463 -6665 0 -6665 0 2 1478 c3 1263 5 1483 18 1516 23 64 96 135 160 156
54 19 202 19 6505 17 l6450 -2 53 -29z m142 -7266 l0 -3490 -6665 0 -6665 0 0
3490 0 3490 6665 0 6665 0 0 -3490z"/>
<path d="M6030 11875 l0 -955 3810 0 3810 0 0 955 0 955 -3810 0 -3810 0 0
-955z m6980 0 l0 -315 -3170 0 -3170 0 0 315 0 315 3170 0 3170 0 0 -315z"/>
<path d="M2382 12490 c-177 -47 -331 -171 -409 -330 -128 -260 -82 -532 122
-736 129 -129 264 -185 445 -185 181 1 316 57 445 186 135 134 189 266 188
455 0 134 -31 235 -104 344 -151 226 -428 334 -687 266z"/>
<path d="M4303 12496 c-226 -52 -420 -243 -478 -471 -19 -76 -19 -222 0 -304
34 -143 138 -292 263 -374 118 -79 215 -108 357 -108 172 0 325 62 444 180
121 121 180 254 188 426 9 189 -47 335 -182 471 -130 131 -245 183 -425 190
-69 2 -127 -1 -167 -10z"/>
<path d="M4185 8360 c-385 -78 -619 -331 -680 -737 -27 -180 -19 -329 32 -575
l26 -127 -26 -30 c-39 -47 -50 -94 -44 -185 9 -137 70 -261 141 -287 26 -9 36
-19 36 -34 0 -12 9 -48 20 -79 43 -127 132 -270 223 -359 l49 -48 -4 -212 -3
-212 -30 -54 c-65 -118 -197 -202 -545 -346 -345 -142 -475 -218 -610 -354
-100 -101 -149 -180 -192 -311 -30 -90 -32 -104 -36 -287 l-4 -193 1906 0
1906 0 0 155 c0 234 -37 377 -133 523 -123 184 -300 300 -727 477 -313 130
-431 202 -505 309 -45 65 -54 124 -54 357 l-1 145 53 55 c101 104 205 285 229
399 10 50 15 57 52 76 82 41 145 202 133 341 -4 52 -11 75 -37 111 l-32 45 25
116 c67 301 60 599 -19 810 -66 178 -210 306 -386 343 -42 9 -60 18 -69 35
-28 53 -141 114 -256 138 -97 21 -324 18 -438 -5z"/>
<path d="M8250 7430 l0 -320 2545 0 2545 0 0 320 0 320 -2545 0 -2545 0 0
-320z"/>
<path d="M8250 5840 l0 -320 2545 0 2545 0 0 320 0 320 -2545 0 -2545 0 0
-320z"/>
<path d="M8252 4253 l3 -318 2063 -3 2062 -2 0 320 0 320 -2065 0 -2065 0 2
-317z"/>
</g>
</svg>
